# xmcd
#
# Track frame offsets:
#	150
#	12696
#	23765
#	35628
#	48925
#	61465
#	72816
#	86216
#	97471
#	110934
#	122669
#	136244
#	150219
#	162691
#	172810
#	184565
#	196970
#	209728
#	222208
#	235097
#
# Disc length: 3309 seconds
#
# Revision: 0
# Processed by: cddbd v1.4PL0 Copyright (c) Steve Scherf et al.
# Submitted via: EasyCDDAExtractor 4.6.9.1
#
DISCID=250ceb14
DTITLE=Hank Williams, Sr. - 40 Greatest Hits Disc 1
DYEAR=1900
DGENRE=Country
TTITLE0=Move It On Over
TTITLE1=I Can't Help It (If I'm Still In Love With You)
TTITLE2=A Mansion On The Hill
TTITLE3=Hey, Good Lookin'
TTITLE4=Lovesick Blues
TTITLE5=Crazy Heart
TTITLE6=Wedding Bells
TTITLE7=(I Heard That) Lonesome Whistle
TTITLE8=Mind Your Own Business
TTITLE9=Baby, We're Really In Love
TTITLE10=You're Gonna Change (Or I'm Gonna' Leave)
TTITLE11=Ramblin' Man
TTITLE12=Lost Highway
TTITLE13=Honky Tonk Blues
TTITLE14=My Bucket's Got A Hole In It
TTITLE15=I'm Sorry For You My Friend
TTITLE16=I'm So Lonesome I Could Cry
TTITLE17=Half As Much
TTITLE18=I Just Don't Like This Kind Of Living
TTITLE19=Jambayala (On The Bayou)
EXTD=
EXTT0=
EXTT1=
EXTT2=
EXTT3=
EXTT4=
EXTT5=
EXTT6=
EXTT7=
EXTT8=
EXTT9=
EXTT10=
EXTT11=
EXTT12=
EXTT13=
EXTT14=
EXTT15=
EXTT16=
EXTT17=
EXTT18=
EXTT19=
PLAYORDER=
